<svg xmlns="http://www.w3.org/2000/svg" viewBox="0 0 132.75 264.57"><defs><style>.cls-1{fill:rgb(241,194,125);}</style></defs><title>body_1</title><g id="Layer_2" data-name="Layer 2"><g id="Layer_3" data-name="Layer 3"><path class="cls-1 body" d="M49.42,0c1.93,11.81-3.6,20-13.52,25.78-5.45,3.19-11.4,6-15.22,11C17.22,41.38,15.94,47.24,15.56,53S15,64.4,15.17,70.12C15.81,96,8.81,95,7.81,114c-.58,11,1.38,16.31-3.61,22.36a21.1,21.1,0,0,0-4,7.7c-.48,1.68.26,5.42.32,7.16.1,3,.18,3.86,2,6.17a25,25,0,0,0,4.18,3.91,2.61,2.61,0,0,0,1.57.72c.59,0,1.16-.69.86-1.19A1.62,1.62,0,0,0,10.5,162c.66.06,1.62,0,1.71-.63.4-3.12-.23-6.27-.21-9.41s.9-6.81,3.47-8.61a4.72,4.72,0,0,1,2,4.61,6.38,6.38,0,0,0-.23,1.73,2,2,0,0,0,2.35,1.63c1-.27.82-.81.95-1.88.43-3.4.84-6.91-.12-10.2-.55-1.86-1.51-3.58-1.86-5.48a16,16,0,0,1,.9-7.28c2.2-7.31,5.28-14.42,6.21-22,.37-3.06.39-6.16.7-9.22.82-8,4-15.23,6.83-22.79L37.56,87a47.88,47.88,0,0,1,1.94,8.24,49.4,49.4,0,0,1,.08,7.79c-.65,15-1.25,30.74,4,45.12C48.21,160.84,58.5,171,62.81,184c-1,10.55-6.47,18-7.41,28.55-.38,4.27-2.64,4.16-2.59,8.45,0,3,2,11,6,15,0,0,10,15,11,7,2,2,2.78,2.34,4,2s1.22-1.43,1.66-2.62a3.55,3.55,0,0,0-.22-2.53c-2.5-7.49-3.88-12.36-2.15-20.07A114.28,114.28,0,0,1,76.81,206c8,13,11.46,33.11,11.5,34.56s0,3.11.27,5.19c.17,1.48-.34,3,.19,4.44s2,2.27,3.47,2.87c2.82,1.17,6.16,2.22,7.29,5,.45,1.12.5,2.46,1.35,3.32a4.33,4.33,0,0,0,1.69.94c5.13,1.85,11.89,3,17.24,1.63,1.93-.49,2.5.43,6,0,1.21-.15,3,0,3.67-2.93-2.67-6.07-10.26-4.67-14.41-7.68-.51-.37.08.77-.58-.87a110.68,110.68,0,0,1-6-20c-2.2-11.12-4.73-22.18-7.78-33.1-1.27-4.53-2.69-9.15-5.58-12.87-.22-.27-1.3-2.57-1.3-2.58a37.06,37.06,0,0,0,3-14,332.51,332.51,0,0,0-1.73-46.37c-.89-9-2.38-17.64-3.27-26.63l.32.23c1.19,3.25,3.39,6,5.56,8.72,4.31,5.36,9.12,7,14.12,14,.9.21-.09,7.19-.11,8.11l-.12,5.47a11.67,11.67,0,0,0,.37,4c.43,1.28,2.39,2,3.71,2.25A4.17,4.17,0,0,0,117,136a4.57,4.57,0,0,0-.69-1.57,5.23,5.23,0,0,1,1-5.69c2.72.8,4.06,1,6.56,2.28,1,.53,2.52,3,3,4a11.49,11.49,0,0,1,1,4c.11,2.66-.68,6.52,4,6,.84-4.52,1.78-9.71-.44-13.73-7.17-13-3.08-4.44-9-13.19-2-2.92-11.31-20.2-14.24-24.24-5.25-7.24-10.47-12.17-12.48-21-2.29-10-5-19.94-7.5-29.9C87,38.61,85.78,34,82.38,31.1c-3.1-2.64-9.42-4.33-12.78-6.62A13.65,13.65,0,0,1,64.75,8.65"/></g></g></svg>
