<svg xmlns="http://www.w3.org/2000/svg" viewBox="0 0 110.11 60.8"><defs><style>.cls-1{fill:#fff;}</style></defs><title>cloud1</title><g id="Layer_2" data-name="Layer 2"><g id="Layer_1-2" data-name="Layer 1"><path class="cls-1" d="M110.11,35.32c0-3.61-4.8-6.61-11-7a17.11,17.11,0,0,0,1.16-6C100.32,10.09,87.42.13,71.4,0c-14.78-.12-27,8.17-28.92,19a30.46,30.46,0,0,0-3.73-.26c-13-.11-23.57,7.87-23.65,17.81a13.79,13.79,0,0,0,.32,3.09C6,41.75,0,44.87,0,48.41,0,55,20.72,60.58,46.4,60.8a154.5,154.5,0,0,0,26.42-1.9c1.33.09,2.7.14,4.09.15,15.46.13,28.05-4.92,28.1-11.27,0-2.12-1.37-4.12-3.79-5.83C106.33,41.11,110.09,38.48,110.11,35.32Z"/></g></g></svg>