<svg xmlns="http://www.w3.org/2000/svg" viewBox="0 0 83.59 25.82"><defs><style>.cls-1{fill:#fff;}</style></defs><title>cloud3</title><g id="Layer_2" data-name="Layer 2"><g id="Layer_1-2" data-name="Layer 1"><ellipse class="cls-1" cx="6.78" cy="18.64" rx="6.78" ry="3.86"/><ellipse class="cls-1" cx="13.97" cy="14.18" rx="8.35" ry="4.18"/><ellipse class="cls-1" cx="20.58" cy="16.62" rx="11.41" ry="4.45"/><g id="Layer_2-2" data-name="Layer 2"><g id="Layer_1-2-2" data-name="Layer 1-2"><path class="cls-1" d="M83.59,15c0-1.53-2-2.8-4.66-3a7.36,7.36,0,0,0,.49-2.55C79.44,4.28,74,.06,67.16,0,60.89,0,55.7,3.47,54.89,8.07A12.14,12.14,0,0,0,53.3,8c-5.51,0-10,3.34-10,7.56a6.41,6.41,0,0,0,.14,1.31c-4,.89-6.54,2.22-6.54,3.72,0,2.8,8.79,5.17,19.69,5.26A65.83,65.83,0,0,0,67.77,25c.56,0,1.14.06,1.73.07,6.56.05,11.91-2.09,11.93-4.79a3.17,3.17,0,0,0-1.61-2.47C82,17.45,83.59,16.33,83.59,15Z"/></g></g></g></g></svg>