<svg xmlns="http://www.w3.org/2000/svg" viewBox="0 0 53.02 34.98"><defs><style>.cls-1{fill:#594239;}</style></defs><title>eyes1_1</title><g id="Layer_2" data-name="Layer 2"><g id="Layer_4" data-name="Layer 4"><path class="cls-1" d="M7.91,13.8a17.55,17.55,0,0,0,4.54,1.12,4.74,4.74,0,0,0,3.79-1.4,6.77,6.77,0,0,1-4.3-1A14.89,14.89,0,0,0,9,10.72a5.63,5.63,0,0,0-4.55.93A8.88,8.88,0,0,0,0,18c-.26,2.68,1.48,5.59,4.13,6.07,1.87.34,1.36-.93,1.39-2.21.07-2.83,1.48-5.46,2.36-8.1"/><path class="cls-1" d="M38.22,26.26a9.46,9.46,0,0,0-1.48,3.36,7.12,7.12,0,0,0,.5,5.12.46.46,0,0,0,.86-.13c.73-3.52,2.89-6.25,5.54-8.94a1.11,1.11,0,0,0,.09-1.51,2,2,0,0,0-1.65-.49A5.51,5.51,0,0,0,38.22,26.26Z"/><path class="cls-1" d="M48.18,25.23l-.08.1a3,3,0,0,1-3.63,1.18c-1-.36-2-.87-1.56-2.71C44.55,25,46.39,25.85,48.18,25.23Z"/><path class="cls-1" d="M19.11,2.85c.64.48,1.3,1.2,1.09,2C20.67,3.12,6,2.3,6,1.67,6.07-2.21,17.65,1.75,19.11,2.85Z"/><path class="cls-1" d="M42.92,12.78a12,12,0,0,1,9.38,3.36A2.13,2.13,0,0,1,53,17.27a.84.84,0,0,1-.67,1,1.26,1.26,0,0,1-.65-.22l-8.74-5"/></g></g></svg>