<svg xmlns="http://www.w3.org/2000/svg" viewBox="0 0 76.47 42.29"><defs><style>.cls-1,.cls-2{fill:none;stroke:#F7E3DA;stroke-miterlimit:10;}.cls-1{stroke-width:0.97px;}.cls-2{stroke-width:0.95px;}</style></defs><title>glasses1_1</title><g id="Layer_2" data-name="Layer 2"><g id="Layer_5" data-name="Layer 5"><path class="cls-1" d="M.56,18.21C-.39,28.33,7.9,36.59,17.82,36.73,28,36.88,39,30.1,42,20.84,45.43,10.71,33.48,2.71,24.13,1.75,13.39.64,1.65,6.61.56,18.21Z" transform="translate(0 -1.13)"/><path class="cls-2" d="M46.68,26.64C44.07,35.4,50.46,43.1,59.21,43S75.32,36.58,75.9,28.13s-1.3-14.17-8.38-15S49.29,17.88,46.68,26.64Z" transform="translate(0 -1.13)"/><path class="cls-1" d="M47.74,23.83c.27-.79-1.57-2.41-5.81-2.61" transform="translate(0 -1.13)"/></g></g></svg>