<svg xmlns="http://www.w3.org/2000/svg" viewBox="0 0 187 155.19"><defs><style>.cls-1{fill:#0f0e0f;}.cls-2{fill:#282723;}</style></defs><title>Asset 2</title><g id="Layer_2" data-name="Layer 2"><g id="Layer_1-2" data-name="Layer 1"><g id="Layer_2-2" data-name="Layer 2"><g id="Layer_4" data-name="Layer 4"><path class="cls-1" d="M93,51.66c8,.75,16.79,2.6,21.71,9.08,1.87,2.5,3,5.42,4.58,8.09a28.28,28.28,0,0,0,16.93,12.89c1.74.46,3.95.57,4.94-.93.77-1.18.4-2.76,0-4.11A107.34,107.34,0,0,0,121,40c-3.54-4.2-11.79-12.51-17.51-7.57C101,34.49,95.08,51.85,93,51.66Z"/><path class="cls-2" d="M41.69,28.76a64.08,64.08,0,0,1,8-10.57c3.44-3.71,7.34-7.1,12.08-8.46C64.42,9,67.27,8.85,69.93,8c2.92-.9,5.39-2.61,8-3.94C87.6-.7,98.86-.3,109.55.47c9.39.68,18.87,1.59,27.64,5.17,15.46,6.35,34.36,25,40.62,40.63s.4,28.4,1.39,45.26c.33,5.62,2.24,13,7.8,13.06-6,5.75-15.74,5.73-23.24,2.2s-13.26-9.87-18.83-16.06a59.06,59.06,0,0,0,20.53,14.56c-10.32,2-21-3.33-28.11-11.14S126,76.29,122.09,66.43a98.8,98.8,0,0,0,27.38,55.86c-12-6.72-21.22-18-26.7-30.72s-7.41-14.36-6.83-28.23c.19-4.85,1-2.3.12-7.08S108,44.75,103.71,42.51c-.07,1.11-1.9,7.5-2.23,8.58A77.23,77.23,0,0,1,96,65c-7,12.75-20.77,8.93-35.17,9.71a22,22,0,0,0,7,17.81c-7.27-1.87-10.67-10-14-16.77S44.16,62.72,37,64.78A12.36,12.36,0,0,0,29.5,70.3a28.45,28.45,0,0,0-4.25,19.24c.68,4.67,3.15,13.15,7.65,15.51a24.81,24.81,0,0,0,8.5,2.18,43.15,43.15,0,0,0,8.65.42c1.81,14.91,3.05,14.91,8,22.7-1.71,4.14-1.42,8.76-2.29,13.22s-3.59,9.12-8,9.62l1.57-12.38a39.77,39.77,0,0,1-10.83,14.38A20.21,20.21,0,0,1,39.81,143a30.84,30.84,0,0,1-25.07,6.62c5.76-4,12.35-6.44,18.42-10S44.85,131,46.6,124.15c-4.43,8.19-14.82,12.11-23.82,10s-16.38-9.32-19.9-18S-.68,97.75,1.4,88.68C3.24,80.63,6.77,72.81,12.51,67s13.92-9.59,22.07-8.85C33.34,47.86,36.37,37.61,41.69,28.76Z"/></g></g></g></g></svg>