<svg xmlns="http://www.w3.org/2000/svg" viewBox="0 0 120.65 122.95"><defs><style>.cls-1{fill:rgb(255,219,172);}.cls-2{fill:rgb(245,189,152);}</style></defs><title>head</title><g id="Layer_2" data-name="Layer 2"><g id="Layer_1-2" data-name="Layer 1"><g id="Layer_2-2" data-name="Layer 2"><g id="Layer_3" data-name="Layer 3"><path id="head_base" class="cls-1 body" d="M61.17,123c-5.11.23-23-9.74-31.47-16.88s-17.38-16-18.14-27.21c-.5-7.4-.5-33.39-.21-38.86C13,8.33,41.34-.64,68.12,0,78.25.31,91.78,5,99.3,11.84c17.55,15.87,22,31.51,21.28,54.1-.19,6.49-3.08,12.74-6.52,18.57-9.7,16.46-13.54,19.07-16,31.91C98.06,116.46,95.06,121.46,61.17,123Z"/><path class="cls-2" id="head_shading" d="M65.14,111.13c2.68.38,3.93.9,6.42-.17a19.72,19.72,0,0,0,1.85-1.06c1.15-1.94-8.49,1-8.85,1.06C64.49,111.15,64.56,111,65.14,111.13Z"/><path class="cls-1" d="M21.94,65.12c-1.67.4-3-1.33-3.69-2.91-1-2.49-1.48-5.19-2.61-7.63s-3.19-4.72-5.86-5S4.65,51,3.25,53.21A20.1,20.1,0,0,0,.89,60.68,40.7,40.7,0,0,0,.07,71.47a15.34,15.34,0,0,0,4.24,9.75,11.9,11.9,0,0,0,12,2.57"/></g></g></g></g>
</svg>
