<svg xmlns="http://www.w3.org/2000/svg" viewBox="0 0 74.6 151.54"><defs><style>.cls-1{fill:#d8935b;}.cls-2{fill:#b27c5d;}</style></defs><title>pants1_1</title><g id="Layer_2" data-name="Layer 2"><g id="Layer_4" data-name="Layer 4"><path class="cls-1" d="M52.6,13.29C55.79,20.82,57,29,57.8,37.17A248.39,248.39,0,0,1,58.89,67.3Q58.71,74.63,58.1,82c-.36,4.35-1.87,9.64-.87,13.79s3.8,8.68,5.41,12.81q2.65,6.86,4.9,13.87a240.31,240.31,0,0,1,7.06,27.74,37.92,37.92,0,0,1-35.33-8.27c-4.07,1.88-8.49-1.59-11.63-4.79-4.27-4.33-8.69-8.93-10.32-14.79-2.5-9,2.11-18.19,6.57-26.35C13.48,79.75,2.61,61.77.49,42.62A123.85,123.85,0,0,1,0,27.82L.18,7.44c0-1-.07-1.83.72-2.36C8.62-.12,18.65-1,27.77.92S44.53,8.65,52.6,13.29Z"/><path class="cls-2" d="M23.23,131.79c8,9.73,12,11,16,10-1.12-3.75-2.09-7.58-3.06-11.4-3-11.79-6.39-24.42-11.94-34.6,0,1.36.65,3.11.61,4.23C24.51,110.72,24,121.13,23.23,131.79Z"/><path class="cls-2" d="M41.24,56.49c-1.56-4.59-3.08-9.35-6.13-13a3,3,0,0,1-.88-1.6A2.72,2.72,0,0,1,35,40.14,31.44,31.44,0,0,1,46.8,30.79a16.72,16.72,0,0,0-7.63,9.09l6.49-1.8c-.89,1.81-1.81,3.59-2.78,5.35L53.31,80.35A6.31,6.31,0,0,0,55,83.68c1,.78,2.81-2.67,3.21-3.89-.61,1.84,0,7-1,14-.23,1.64-5.16-9.7-5.88-11.32Q45.73,69.75,41.24,56.49Z"/></g></g></svg>