<svg xmlns="http://www.w3.org/2000/svg" viewBox="0 0 89.34 57.42"><defs><style>.cls-1{fill:#f7e3da;}</style></defs><title>shoes1</title><g id="Layer_2" data-name="Layer 2"><g id="Layer_1-2" data-name="Layer 1"><path class="cls-1" d="M40.05,40.09a6.32,6.32,0,0,0,1,2.41C42.21,44,44.19,44.36,45.91,45a14,14,0,0,1,6.74,5.47,13.62,13.62,0,0,0,2.08,2.89,8,8,0,0,0,2.51,1.35c7.19,2.7,15.07,2.88,22.75,2.58,2.66-.11,5.42-.29,7.74-1.61A3,3,0,0,0,89.27,54,2.88,2.88,0,0,0,89,52.19C87.41,48.52,83.08,47,79.22,46S71,43.33,69.5,39.63c-.86.22-1.36,1.09-2,1.66-1.93,1.64-4.87.74-7.21-.23-6-2.49-12.07-5.05-16.86-9.4-2.3-2.1-3.46-2.42-3.83,1.05A21.09,21.09,0,0,0,40.05,40.09Z"/><path class="cls-1" d="M1,3.09a20.31,20.31,0,0,0-.55,10.4,25.19,25.19,0,0,0,2.44,6.09A48.36,48.36,0,0,0,16.53,35.35,13.16,13.16,0,0,0,21.7,38a5.47,5.47,0,0,0,2.84-.14c2.42-.89,3.34-3.79,3.22-6.29A27.31,27.31,0,0,0,26,24.2l-2-6c-.1-.3-.3-.66-.62-.6A11.22,11.22,0,0,1,22.15,22a4.05,4.05,0,0,1-3.92,2,5.57,5.57,0,0,1-2.08-1,34.68,34.68,0,0,1-13-16.58,8.33,8.33,0,0,1-.61-3.88c.1-1,.89-2-.22-2.58A7.69,7.69,0,0,0,1,3.09Z"/></g></g></svg>