<svg xmlns="http://www.w3.org/2000/svg" viewBox="0 0 123.84 120.29"><defs><style>.cls-1{fill:#F7E3DA;}</style></defs><title>sweater1</title><g id="Layer_2" data-name="Layer 2"><g id="Layer_4" data-name="Layer 4"><path class="cls-1" d="M64.7,6.26c-.15,4,3.29,7.18,6.86,8.92s7.59,2.65,10.73,5.07c4.57,3.52,6.4,9.45,8,15l7.39,26.11c.92,3.23,1.9,6.58,4.17,9,1.37,1.49,3.12,2.56,4.6,3.93A30.28,30.28,0,0,1,111.84,82l12,21.39c-3.52,1.67-3.67,7.61-.23,9.45a54.43,54.43,0,0,1-15.9-1,32.71,32.71,0,0,0-7.68-9.81c-4.9-4.27-11.8-8.57-11-15,.44,3.32.38,5,1,6.84a1.09,1.09,0,0,1-.91,1.42C84.14,95.84,78,94,73.29,92.8a170.65,170.65,0,0,0-39.06-5.48,53.22,53.22,0,0,0-3.37-15.51c-3.55,6.1.14,14.3-2.82,20.7-1.42,3.08-4.33,5.61-4.47,9-.05,1.34.33,2.78-.31,4a6.38,6.38,0,0,1-2,1.85,13.19,13.19,0,0,0-5.06,12.78c-5.35.57-12.39.1-13.92-5.06-.68-2.3.1-4.8-.36-7.16-.31-1.57-1.16-3-1.58-4.54-.8-3,0-6.07.83-9q3-11.07,6.1-22.14c1.6-5.81,3.22-11.71,3.13-17.73-.11-8.63-3.54-18.05,1-25.39,1.8-2.94,4.65-5,7.43-7.08l11.92-8.72c2.09-1.52,5.28-3.12,7-5.08,1.84-2.14,1.32-3.78,2.68-6C44.15-3.91,58.43,4.47,64.7,6.26Z"/></g></g></svg>